<svg width="0" height="0" class="hidden">
  <!-- ! -->
  <symbol version="1.1" id="phone"
    xmlns="http://www.w3.org/2000/svg"
    xmlns:xlink="http://www.w3.org/1999/xlink" x="0px" y="0px" xml:space="preserve" viewBox="0 0 485.213 485.212">
    <g>
      <path d="M242.607,0C108.629,0,0.001,108.628,0.001,242.606c0,133.976,108.628,242.606,242.606,242.606
		c133.978,0,242.604-108.631,242.604-242.606C485.212,108.628,376.585,0,242.607,0z M370.719,353.989l-19.425,19.429
		c-3.468,3.463-13.623,5.624-13.949,5.624c-61.452,0.536-120.621-23.602-164.095-67.08c-43.593-43.618-67.759-102.998-67.11-164.657
		c0-0.028,2.224-9.892,5.689-13.324l19.424-19.427c7.108-7.141,20.762-10.368,30.327-7.168l4.086,1.363
		c9.537,3.197,19.55,13.742,22.185,23.457l9.771,35.862c2.635,9.743-0.919,23.604-8.025,30.712l-12.97,12.972
		c12.734,47.142,49.723,84.138,96.873,96.903l12.965-12.975c7.141-7.141,20.997-10.692,30.719-8.061l35.857,9.806
		c9.717,2.67,20.26,12.62,23.456,22.154l1.363,4.145C381.028,333.262,377.826,346.913,370.719,353.989z"></path>
    </g>
  </symbol>
  <!-- ! -->
  <symbol fill="none"
    xmlns="http://www.w3.org/2000/svg" viewBox="0 0 48 48" id="gmail_logo_icon_147283">
    <path d="M0 24C0 10.7452 10.7452 0 24 0C37.2548 0 48 10.7452 48 24C48 37.2548 37.2548 48 24 48C10.7452 48 0 37.2548 0 24Z" fill="white"></path>
    <path d="M34.4697 33.23H13.5009C12.6878 33.23 12.0031 32.5667 12.0031 31.7322V16.5833C12.0031 15.7703 12.6664 15.0856 13.5009 15.0856H34.4697C35.2828 15.0856 35.9675 15.7489 35.9675 16.5833V31.7322C35.9675 32.5667 35.3042 33.23 34.4697 33.23Z" fill="#E3E3E3"></path>
    <path opacity="0.1" d="M14.9987 33.23L23.9639 26.0193L24.0281 25.6342L14.7847 18.9798L14.7633 32.9091L14.9987 33.23Z" fill="#231F20"></path>
    <path d="M13.5009 33.23C12.6664 33.23 12.0031 32.5667 12.0031 31.7322V16.5619C12.0031 15.7275 12.6664 15.5777 13.5009 15.5777C14.3354 15.5777 14.9987 15.7489 14.9987 16.5619V33.23H13.5009Z" fill="#D54B3D"></path>
    <path fill-rule="evenodd" clip-rule="evenodd" d="M12.0031 16.5619C12.0031 15.7489 12.6664 15.5777 13.5009 15.5777C14.3354 15.5777 14.9987 15.7275 14.9987 16.5619V33.23H13.5009C12.6664 33.23 12.0031 32.5667 12.0031 31.7322V16.5619ZM14.7847 16.5619C14.7847 16.1126 14.5707 15.7917 13.5009 15.7917C12.4311 15.7917 12.2171 16.0912 12.2171 16.5619V31.7322C12.2171 32.4383 12.7948 33.016 13.5009 33.016H14.7847V16.5619Z" fill="#D72B27"></path>
    <path d="M34.4697 33.23H32.9719V16.5192C32.9719 15.6847 33.6352 15.5777 34.4697 15.5777C35.3041 15.5777 35.9674 15.6847 35.9674 16.5192V31.7536C35.9674 32.5667 35.3041 33.23 34.4697 33.23Z" fill="#D54B3D"></path>
    <path fill-rule="evenodd" clip-rule="evenodd" d="M32.9719 16.5192C32.9719 15.6847 33.6352 15.5777 34.4697 15.5777C35.3041 15.5777 35.9674 15.6847 35.9674 16.5192V31.7536C35.9674 32.5881 35.3041 33.2514 34.4697 33.2514H32.9719V16.5192ZM35.7535 16.5192C35.7535 15.9842 35.4325 15.7917 34.4697 15.7917C33.5068 15.7917 33.1859 15.9628 33.1859 16.5192V33.0374H34.4697C35.1758 33.0374 35.7535 32.4597 35.7535 31.7536V16.5192Z" fill="#D72B27"></path>
    <path d="M28.0507 33.23L12.1285 17.1842L12.966 17.5248L24.0495 25.5058L35.9675 16.7666V31.7536C35.9675 32.5667 35.3042 33.23 34.4697 33.23H28.0507Z" fill="url(#paint0_linear)"></path>
    <path d="M23.9639 26.0193L12.645 17.803C11.9817 17.3109 11.7892 16.3694 12.2813 15.7061C12.7734 15.0428 13.7363 14.893 14.421 15.3851L23.9853 22.3391L33.6138 15.2996C34.2771 14.8074 35.2186 14.9572 35.7107 15.6419C36.2028 16.3052 36.053 17.2467 35.3683 17.7388L23.9639 26.0193Z" fill="#D54B3D"></path>
    <path fill-rule="evenodd" clip-rule="evenodd" d="M33.5924 15.2782C33.8492 15.0856 34.1701 15 34.4697 15C34.9404 15 35.3897 15.214 35.6893 15.6419C36.16 16.3266 36.0103 17.2467 35.347 17.7388L23.9639 26.0407L12.645 17.803C11.9817 17.3108 11.7892 16.3694 12.2599 15.7061C12.5594 15.2996 13.0302 15.0856 13.5009 15.0856C13.8219 15.0856 14.1428 15.1712 14.3996 15.3637L23.9639 22.3177L33.5924 15.2782ZM35.5181 15.7489C35.2614 15.4065 34.8762 15.214 34.4697 15.214C34.1915 15.214 33.9348 15.2996 33.6994 15.4493L24.0923 22.4889L23.9639 22.5744L23.8355 22.4889L14.2926 15.5563C14.0786 15.3851 13.8005 15.2996 13.5223 15.2996C13.0944 15.2996 12.6878 15.5135 12.4525 15.8345C12.0459 16.3908 12.1957 17.2039 12.7734 17.6318L23.9639 25.7625L35.24 17.5462C35.7963 17.1183 35.9247 16.3266 35.5181 15.7489Z" fill="#D72B27"></path>
    <defs>
      <linearGradient id="paint0_linear" x1="12.1294" y1="33.2319" x2="35.9752" y2="33.2319" gradientUnits="userSpaceOnUse">
        <stop stop-opacity="0.1"></stop>
        <stop offset="1" stop-opacity="0.2"></stop>
      </linearGradient>
    </defs>
  </symbol>
  <!-- ! -->
  <symbol enable-background="new 0 0 128 128" id="Viber_icon-icons.com_66792" version="1.1" xml:space="preserve"
    xmlns="http://www.w3.org/2000/svg"
    xmlns:xlink="http://www.w3.org/1999/xlink" viewBox="0 0 128 128">
    <g id="_x34__stroke">
      <g id="Viber_1_">
        <rect clip-rule="evenodd" fill="none" fill-rule="evenodd" height="128" width="128"></rect>
        <path clip-rule="evenodd" d="M71.4,44.764c2.492,0.531,4.402,1.478,6.034,3.006    c2.1,1.983,3.251,4.383,3.757,7.831c0.342,2.248,0.202,3.132-0.595,3.865c-0.746,0.682-2.125,0.707-2.96,0.063    c-0.607-0.455-0.797-0.935-0.936-2.236c-0.164-1.731-0.468-2.943-0.987-4.067c-1.113-2.387-3.074-3.625-6.388-4.029    c-1.556-0.19-2.024-0.366-2.53-0.96c-0.924-1.099-0.569-2.88,0.708-3.537c0.481-0.24,0.683-0.265,1.746-0.202    C69.908,44.536,70.882,44.65,71.4,44.764z M68.706,35.227c7.679,1.124,13.624,4.686,17.521,10.471    c2.189,3.259,3.555,7.086,4.023,11.191c0.164,1.503,0.164,4.244-0.013,4.699c-0.165,0.429-0.696,1.01-1.151,1.25    c-0.493,0.253-1.543,0.227-2.125-0.076c-0.974-0.493-1.265-1.276-1.265-3.398c0-3.271-0.848-6.72-2.315-9.398    c-1.67-3.057-4.099-5.583-7.059-7.339c-2.543-1.516-6.3-2.64-9.728-2.918c-1.24-0.101-1.923-0.354-2.391-0.897    c-0.721-0.821-0.797-1.933-0.19-2.855C64.67,34.937,65.682,34.772,68.706,35.227z M38.914,27.434    c0.443,0.152,1.126,0.505,1.518,0.758c2.403,1.592,9.095,10.143,11.284,14.412c1.252,2.438,1.67,4.244,1.278,5.583    c-0.405,1.44-1.075,2.198-4.074,4.61c-1.202,0.972-2.328,1.97-2.505,2.236c-0.455,0.657-0.822,1.945-0.822,2.855    c0.013,2.109,1.379,5.937,3.175,8.88c1.391,2.286,3.883,5.216,6.35,7.465c2.897,2.653,5.452,4.459,8.337,5.886    c3.707,1.844,5.971,2.311,7.628,1.541c0.417-0.19,0.86-0.442,0.999-0.556c0.126-0.114,1.101-1.301,2.163-2.615    c2.049-2.577,2.517-2.994,3.922-3.474c1.784-0.606,3.605-0.442,5.44,0.493c1.392,0.72,4.428,2.602,6.388,3.966    c2.581,1.806,8.096,6.303,8.843,7.2c1.315,1.617,1.543,3.688,0.658,5.975c-0.936,2.412-4.579,6.934-7.122,8.867    c-2.302,1.743-3.934,2.412-6.085,2.513c-1.771,0.088-2.505-0.063-4.769-0.998C63.76,95.718,49.579,84.805,38.32,69.811    c-5.882-7.831-10.361-15.953-13.422-24.378c-1.784-4.913-1.872-7.048-0.405-9.562c0.633-1.061,3.327-3.688,5.288-5.153    c3.264-2.425,4.769-3.322,5.971-3.575C36.574,26.966,38.004,27.105,38.914,27.434z M67.833,26.07    c4.352,0.543,7.868,1.591,11.727,3.474c3.795,1.857,6.224,3.613,9.437,6.808c3.011,3.019,4.681,5.305,6.452,8.854    c2.467,4.951,3.871,10.838,4.111,17.317c0.089,2.21,0.025,2.703-0.481,3.335c-0.961,1.225-3.074,1.023-3.795-0.354    c-0.228-0.455-0.291-0.846-0.367-2.615c-0.127-2.716-0.316-4.471-0.696-6.568c-1.493-8.223-5.44-14.791-11.74-19.503    c-5.25-3.941-10.677-5.861-17.786-6.278c-2.404-0.139-2.821-0.227-3.365-0.644c-1.012-0.796-1.063-2.665-0.089-3.537    c0.595-0.543,1.012-0.619,3.074-0.556C65.392,25.842,66.973,25.969,67.833,26.07z M64,0c35.346,0,64,28.654,64,64    s-28.654,64-64,64S0,99.346,0,64S28.654,0,64,0z" fill="#7F4DA0" fill-rule="evenodd" id="Viber"></path>
      </g>
    </g>
  </symbol>
  <!-- ! -->
  <symbol fill="none"
    xmlns="http://www.w3.org/2000/svg" viewBox="0 0 48 48" id="whatsapp_logo_icon_147205">
    <path d="M24 48C37.2548 48 48 37.2548 48 24C48 10.7452 37.2548 0 24 0C10.7452 0 0 10.7452 0 24C0 37.2548 10.7452 48 24 48Z" fill="#25D366"></path>
    <path fill-rule="evenodd" clip-rule="evenodd" d="M24.7911 37.3525H24.7852C22.3967 37.3517 20.0498 36.7524 17.9653 35.6154L10.4 37.6L12.4246 30.2048C11.1757 28.0405 10.5186 25.5855 10.5196 23.0702C10.5228 15.2017 16.9248 8.79999 24.7909 8.79999C28.6086 8.80164 32.1918 10.2879 34.8862 12.9854C37.5806 15.6828 39.0636 19.2683 39.0621 23.0815C39.059 30.9483 32.6595 37.3493 24.7911 37.3525ZM18.3159 33.0319L18.749 33.2889C20.5702 34.3697 22.6578 34.9415 24.7863 34.9423H24.7911C31.3288 34.9423 36.6499 29.6211 36.6525 23.0807C36.6538 19.9112 35.4212 16.9311 33.1817 14.689C30.9422 12.4469 27.964 11.2115 24.7957 11.2104C18.2529 11.2104 12.9318 16.5311 12.9292 23.0711C12.9283 25.3124 13.5554 27.4951 14.7427 29.3836L15.0248 29.8324L13.8265 34.2095L18.3159 33.0319ZM31.4924 26.154C31.7411 26.2742 31.9091 26.3554 31.9808 26.4751C32.0699 26.6238 32.0699 27.3378 31.7729 28.1708C31.4756 29.0038 30.051 29.764 29.3659 29.8663C28.7516 29.9582 27.9741 29.9965 27.1199 29.725C26.602 29.5607 25.9379 29.3413 25.0871 28.9739C21.7442 27.5304 19.485 24.2904 19.058 23.678C19.0281 23.6351 19.0072 23.6051 18.9955 23.5895L18.9927 23.5857C18.804 23.3339 17.5395 21.6468 17.5395 19.9008C17.5395 18.2582 18.3463 17.3973 18.7177 17.001C18.7432 16.9739 18.7666 16.9489 18.7875 16.926C19.1144 16.569 19.5007 16.4797 19.7384 16.4797C19.9761 16.4797 20.2141 16.4819 20.4219 16.4924C20.4475 16.4937 20.4742 16.4935 20.5017 16.4933C20.7095 16.4921 20.9686 16.4906 21.2242 17.1045C21.3225 17.3407 21.4664 17.691 21.6181 18.0604C21.9249 18.8074 22.264 19.6328 22.3236 19.7522C22.4128 19.9307 22.4722 20.1389 22.3533 20.3769C22.3355 20.4126 22.319 20.4463 22.3032 20.4785C22.2139 20.6608 22.1483 20.7948 21.9967 20.9718C21.9372 21.0413 21.8756 21.1163 21.814 21.1913C21.6913 21.3407 21.5687 21.4901 21.4619 21.5965C21.2833 21.7743 21.0975 21.9672 21.3055 22.3242C21.5135 22.6812 22.2292 23.8489 23.2892 24.7945C24.4288 25.8109 25.4192 26.2405 25.9212 26.4582C26.0192 26.5008 26.0986 26.5352 26.1569 26.5644C26.5133 26.7429 26.7213 26.713 26.9294 26.4751C27.1374 26.2371 27.8208 25.4338 28.0584 25.0769C28.2961 24.7201 28.5339 24.7795 28.8607 24.8984C29.1877 25.0176 30.9408 25.8801 31.2974 26.0586C31.367 26.0934 31.4321 26.1249 31.4924 26.154Z" fill="#FDFDFD"></path>
  </symbol>
  <!-- ! -->
  <symbol xmlns="http://www.w3.org/2000/svg" viewBox="0 0 64 64" id="telegram_logo_icon_168692">
    <defs>
      <clipPath id="A">
        <path d="M15.903 131.998c0-65.17 52.83-118 118-118s118 52.83 118 118-52.83 118-118 118-118-52.83-118-118"></path>
      </clipPath>
      <linearGradient x1="133.903" y1="13.999" x2="133.903" y2="249.999" gradientUnits="userSpaceOnUse" spreadMethod="pad" id="B">
        <stop offset="0" stop-color="#1d93d2"></stop>
        <stop offset="1" stop-color="#38b0e3"></stop>
      </linearGradient>
      <clipPath id="C">
        <path d="M0 265.9h266.987V0H0z"></path>
      </clipPath>
      <clipPath id="D">
        <path d="M0 265.9h266.987V0H0z"></path>
      </clipPath>
      <clipPath id="E">
        <path d="M0 265.9h266.987V0H0z"></path>
      </clipPath>
    </defs>
    <g transform="matrix(.271187 0 0 -.271187 -4.312678 67.796339)">
      <path d="M15.903 131.998c0-65.17 52.83-118 118-118s118 52.83 118 118-52.83 118-118 118-118-52.83-118-118" fill="rgb(74,149,214)" clip-path="url(#A)"></path>
      <g clip-path="url(#C)">
        <path d="M95.778 123.374l14-38.75S111.528 81 113.403 81s29.75 29 29.75 29l31 59.875-77.875-36.5z" fill="#c8daea"></path>
      </g>
      <g clip-path="url(#D)">
        <path d="M114.34 113.436l-2.688-28.562s-1.125-8.75 7.625 0 17.125 15.5 17.125 15.5" fill="#a9c6d8"></path>
      </g>
      <g clip-path="url(#E)">
        <path d="M96.03 121.99l-28.795 9.383s-3.437 1.395-2.333 4.562c.228.653.687 1.208 2.062 2.167 6.382 4.447 118.104 44.604 118.104 44.604s3.155 1.062 5.02.356c.852-.323 1.396-.688 1.854-2.02.167-.485.263-1.516.25-2.542-.01-.74-.1-1.425-.166-2.5-.68-10.98-21.04-92.918-21.04-92.918s-1.218-4.795-5.583-4.958c-1.592-.06-3.524.263-5.834 2.25-8.565 7.368-38.172 27.265-44.713 31.64-.37.246-.474.567-.537.88-.092.46.4 1.034.4 1.034s51.552 45.825 52.924 50.633c.106.373-.293.557-.834.396-3.424-1.26-62.78-38.74-69.33-42.88-.383-.242-1.457-.086-1.457-.086" fill="#fff"></path>
      </g>
    </g>
  </symbol>
  <!-- ! -->
  <!-- footer -->
  <!-- ! -->

  <symbol xmlns="http://www.w3.org/2000/svg" viewBox="0 0 28 28" id="inst">
        <path d="M15.36 0.666992C17.76 0.666992 18.267 0.693992 19.493 0.746992C20.906 0.813992 21.88 1.03999 22.72 1.37399C23.6 1.70699 24.347 2.17399 25.08 2.90699C25.827 3.63999 26.28 4.38699 26.627 5.26699C26.96 6.10699 27.174 7.07999 27.24 8.50699C27.307 9.77399 27.32 10.267 27.32 12.934V15.067C27.32 17.734 27.307 18.227 27.24 19.494C27.217 20.659 26.994 21.764 26.604 22.788L26.626 22.721C26.279 23.601 25.826 24.348 25.093 25.081C24.346 25.828 23.6 26.281 22.72 26.628C21.88 26.961 20.907 27.175 19.493 27.241C18.226 27.308 17.72 27.321 15.053 27.321H12.933C10.266 27.321 9.77296 27.308 8.49296 27.241C7.32796 27.218 6.22296 26.995 5.19896 26.605L5.26596 26.627C4.34296 26.274 3.55596 25.753 2.90696 25.094L2.90596 25.093C2.23996 24.441 1.71396 23.649 1.37396 22.764L1.35896 22.719C0.991964 21.763 0.768964 20.657 0.745964 19.502V19.492C0.692964 18.45 0.662964 17.229 0.662964 16.002C0.662964 15.776 0.663964 15.55 0.665964 15.325V15.359V12.626C0.665964 10.226 0.692964 9.71899 0.745964 8.49299C0.812964 7.07999 1.03896 6.10599 1.35896 5.26599C1.70596 4.38599 2.15896 3.63899 2.90596 2.90599C3.55096 2.23899 4.33996 1.71599 5.22296 1.38699L5.26596 1.37299C6.22096 1.00199 7.32596 0.773992 8.48096 0.746992H8.49296C9.71996 0.693992 10.226 0.666992 12.626 0.666992H15.36ZM15.387 3.06699H12.6C10.293 3.06699 9.79996 3.09399 8.59996 3.14699C7.30696 3.19999 6.59996 3.41399 6.13296 3.59999C5.50596 3.83999 5.06596 4.13299 4.59996 4.59999C4.13396 5.06699 3.83996 5.50699 3.59996 6.13299C3.42696 6.59999 3.19996 7.30599 3.14696 8.61299C3.09396 9.81299 3.06696 10.293 3.06696 12.613V15.386C3.06696 17.706 3.09396 18.186 3.14696 19.386C3.19996 20.679 3.41396 21.386 3.59996 21.853C3.83996 22.48 4.13296 22.92 4.59996 23.386C5.06696 23.852 5.50696 24.146 6.13296 24.386C6.59996 24.573 7.30596 24.786 8.61296 24.839C9.90596 24.906 10.373 24.919 13.253 24.919H14.733C17.626 24.919 18.08 24.906 19.386 24.839C20.679 24.786 21.386 24.572 21.853 24.386C22.48 24.146 22.92 23.853 23.386 23.386C23.852 22.919 24.146 22.479 24.386 21.853C24.573 21.386 24.786 20.68 24.839 19.386C24.906 18.079 24.919 17.626 24.919 14.733V13.266C24.919 10.373 24.906 9.90599 24.839 8.59899C24.786 7.30599 24.572 6.59899 24.386 6.13199C24.16 5.53099 23.819 5.01799 23.387 4.59999L23.386 4.59899C22.966 4.16599 22.454 3.82499 21.881 3.60799L21.853 3.59899C21.121 3.32299 20.275 3.15799 19.391 3.14599H19.386C18.358 3.09399 17.155 3.06399 15.944 3.06399C15.748 3.06399 15.552 3.06499 15.356 3.06599H15.386L15.387 3.06699ZM14 7.14699C17.781 7.14699 20.847 10.212 20.847 13.994C20.847 17.776 17.782 20.841 14 20.841C10.219 20.841 7.15296 17.776 7.15296 13.994C7.15296 10.212 10.218 7.14699 14 7.14699ZM14 9.54699C11.544 9.54699 9.55296 11.538 9.55296 13.994C9.55296 16.45 11.544 18.441 14 18.441C16.456 18.441 18.447 16.45 18.447 13.994C18.447 11.538 16.456 9.54699 14 9.54699ZM21.107 5.27999C21.991 5.27999 22.707 5.99599 22.707 6.87999C22.707 7.76399 21.991 8.47999 21.107 8.47999C20.223 8.47999 19.507 7.76399 19.507 6.87999C19.507 5.99599 20.223 5.27999 21.107 5.27999Z"></path>
    </symbol>

  <!-- <symbol xmlns="http://www.w3.org/2000/svg" viewBox="0 0 17 28" id="fb">
    <path d="M5.04 27.333L5 15.666H0V10.666H5V7.33302C5 2.84002 7.787 0.666016 11.8 0.666016C13.72 0.666016 15.373 0.799016 15.853 0.866016V5.57302H13.066C10.893 5.57302 10.466 6.61302 10.466 8.13302V10.666H16.666L14.999 15.666H10.466V27.333H5.039H5.04Z"></path>
  </symbol> -->

  <symbol xmlns="http://www.w3.org/2000/svg" id="vk" viewBox="0 0 97.75 97.75">
      <path d="M48.875,0C21.883,0,0,21.882,0,48.875S21.883,97.75,48.875,97.75S97.75,75.868,97.75,48.875S75.867,0,48.875,0z
        M73.667,54.161c2.278,2.225,4.688,4.319,6.733,6.774c0.906,1.086,1.76,2.209,2.41,3.472c0.928,1.801,0.09,3.776-1.522,3.883
        l-10.013-0.002c-2.586,0.214-4.644-0.829-6.379-2.597c-1.385-1.409-2.67-2.914-4.004-4.371c-0.545-0.598-1.119-1.161-1.803-1.604
        c-1.365-0.888-2.551-0.616-3.333,0.81c-0.797,1.451-0.979,3.059-1.055,4.674c-0.109,2.361-0.821,2.978-3.19,3.089
        c-5.062,0.237-9.865-0.531-14.329-3.083c-3.938-2.251-6.986-5.428-9.642-9.025c-5.172-7.012-9.133-14.708-12.692-22.625
        c-0.801-1.783-0.215-2.737,1.752-2.774c3.268-0.063,6.536-0.055,9.804-0.003c1.33,0.021,2.21,0.782,2.721,2.037
        c1.766,4.345,3.931,8.479,6.644,12.313c0.723,1.021,1.461,2.039,2.512,2.76c1.16,0.796,2.044,0.533,2.591-0.762
        c0.35-0.823,0.501-1.703,0.577-2.585c0.26-3.021,0.291-6.041-0.159-9.05c-0.28-1.883-1.339-3.099-3.216-3.455
        c-0.956-0.181-0.816-0.535-0.351-1.081c0.807-0.944,1.563-1.528,3.074-1.528l11.313-0.002c1.783,0.35,2.183,1.15,2.425,2.946
        l0.01,12.572c-0.021,0.695,0.349,2.755,1.597,3.21c1,0.33,1.66-0.472,2.258-1.105c2.713-2.879,4.646-6.277,6.377-9.794
        c0.764-1.551,1.423-3.156,2.063-4.764c0.476-1.189,1.216-1.774,2.558-1.754l10.894,0.013c0.321,0,0.647,0.003,0.965,0.058
        c1.836,0.314,2.339,1.104,1.771,2.895c-0.894,2.814-2.631,5.158-4.329,7.508c-1.82,2.516-3.761,4.944-5.563,7.471
        C71.48,50.992,71.611,52.155,73.667,54.161z"/>
  </symbol>

  <symbol xmlns="http://www.w3.org/2000/svg" viewBox="0 0 640 640" id="vim">
       <path d="M579.999 0H60C27 0 0 27 0 60v520c0 33 27 60 60 60h519.999c33 0 60-27 60-60V60c0-33-27-60-60-60zm-41.48 212.53c-1.997 45-33.52 106.643-94.372 184.88-62.87 81.757-116.116 122.635-159.64 122.635-27 0-49.76-24.886-68.375-74.647-12.508-45.638-24.874-91.23-37.347-136.88-13.76-49.748-28.642-74.634-44.48-74.634-3.473 0-15.65 7.24-36.237 21.756L76.31 227.647c22.867-20.008 45.355-40.134 67.49-60.13 30.52-26.245 53.244-40.123 68.48-41.517 36.001-3.472 58.112 21.119 66.474 73.761 9 56.883 15.236 92.115 18.768 105.993 10.346 47.127 21.756 70.654 34.24 70.654 9.638 0 24.237-15.248 43.643-45.886 19.417-30.65 29.764-53.883 31.11-69.875 2.776-26.374-7.63-39.638-31.11-39.638-11.126 0-22.524 2.516-34.24 7.63 22.747-74.363 66.13-110.635 130.241-108.486 47.516 1.358 69.875 32.126 67.123 92.351l-.012.024z"></path>
  </symbol>

   <symbol xmlns="http://www.w3.org/2000/svg" viewBox="0 0 312 511.42" id="arrow-right">
     <path d="M35.54 0 312 252.82 29.84 511.42 0 478.8l246.54-225.94L5.7 32.62z"></path>
  </symbol>

  <symbol xmlns="http://www.w3.org/2000/svg" viewBox="0 0 512 312.36" id="arrow-top">
    <path d="M0 276.77 253.12 0 512 282.48l-32.65 29.88-226.2-246.83L32.66 306.64z"></path>
  </symbol>

  <symbol xmlns="http://www.w3.org/2000/svg" viewBox="0 0 512 312.36" id="arrow-down">
    <path d="m32.66 5.71 220.49 241.11L479.35 0 512 29.87 253.12 312.36 0 35.58z"></path>
  </symbol>

  <symbol xmlns="http://www.w3.org/2000/svg" viewBox="0 0 312 511.42" id="arrow-left">
    <path d="M306.3 32.62 65.46 252.86 312 478.8l-29.84 32.62L0 252.83 276.46 0z"></path>
  </symbol>

  <symbol viewBox="0 0 12 12" xmlns="http://www.w3.org/2000/svg" id="cross">
    <path d="M7.42618 6.00003L11.7046 1.72158C12.0985 1.32775 12.0985 0.689213 11.7046 0.295433C11.3108 -0.0984027 10.6723 -0.0984027 10.2785 0.295433L5.99998 4.57394L1.72148 0.295377C1.32765 -0.098459 0.68917 -0.098459 0.295334 0.295377C-0.0984448 0.689213 -0.0984448 1.32775 0.295334 1.72153L4.57383 5.99997L0.295334 10.2785C-0.0984448 10.6723 -0.0984448 11.3108 0.295334 11.7046C0.68917 12.0985 1.32765 12.0985 1.72148 11.7046L5.99998 7.42612L10.2785 11.7046C10.6723 12.0985 11.3108 12.0985 11.7046 11.7046C12.0985 11.3108 12.0985 10.6723 11.7046 10.2785L7.42618 6.00003Z"></path>
  </symbol>
</svg>